<?xml version="1.0" encoding="UTF-8" standalone="no"?>
<!-- Created with Inkscape (http://www.inkscape.org/) -->

<svg
   version="1.1"
   id="svg2"
   width="687.37695"
   height="685.7793"
   viewBox="0 0 687.37695 685.7793"
   sodipodi:docname="sprocketed pan 2.svg"
   inkscape:export-filename="sprocketed pan tu.svg"
   inkscape:export-xdpi="96"
   inkscape:export-ydpi="96"
   xml:space="preserve"
   inkscape:version="1.2.2 (732a01da63, 2022-12-09)"
   xmlns:inkscape="http://www.inkscape.org/namespaces/inkscape"
   xmlns:sodipodi="http://sodipodi.sourceforge.net/DTD/sodipodi-0.dtd"
   xmlns="http://www.w3.org/2000/svg"
   xmlns:svg="http://www.w3.org/2000/svg"><defs
     id="defs6" /><sodipodi:namedview
     id="namedview4"
     pagecolor="#505050"
     bordercolor="#eeeeee"
     borderopacity="1"
     inkscape:showpageshadow="0"
     inkscape:pageopacity="0"
     inkscape:pagecheckerboard="0"
     inkscape:deskcolor="#505050"
     showgrid="true"
     inkscape:zoom="1.0636576"
     inkscape:cx="360.54835"
     inkscape:cy="329.52333"
     inkscape:window-width="1920"
     inkscape:window-height="1001"
     inkscape:window-x="-9"
     inkscape:window-y="-9"
     inkscape:window-maximized="1"
     inkscape:current-layer="g8"
     showguides="true"><inkscape:grid
       type="xygrid"
       id="grid281"
       originx="187.37622"
       originy="-90.000446"
       snapvisiblegridlinesonly="true"
       empspacing="5"
       dotted="false"
       empcolor="#009ae5"
       empopacity="0.14901961" /></sodipodi:namedview><g
     inkscape:groupmode="layer"
     inkscape:label="Image"
     id="g8"
     transform="translate(182.37696,-99.999996)"><g
       id="g1532"
       style="opacity:1;mix-blend-mode:normal;fill:#000000;fill-opacity:1"
       transform="translate(4.99926,9.99955)"><path
         id="path488"
         style="opacity:1;fill:#000000;fill-opacity:1;fill-rule:evenodd;stroke-width:0.990521"
         d="M 235.00074,90.000446 C 88.645278,90.000443 -20,210 -20,350 c 0,143.59404 108.645279,260.00045 255.00074,260.00045 146.35546,0 265,-116.40597 265,-260 0,-143.59404 -118.64454,-260.000004 -265,-260.000004 z m 5,90.000004 c 10.11565,0.0155 20.20973,0.93387 30.1621,2.74414 l 2.77735,47.21289 c 9.39629,2.6691 18.44803,6.38954 26.97656,11.08789 l 35.59766,-31.64258 c 6.2078,4.21632 12.1296,8.83907 17.72656,13.83789 l 13.51758,13.51758 c 4.21089,4.72609 8.15453,9.68368 11.8125,14.84961 l -31.16992,35.0664 c 5.70518,9.527 10.09695,19.75345 13.06054,30.41211 l 46.79297,2.75196 c 1.81093,9.95231 2.72994,20.0464 2.7461,30.16211 -0.10992,10.12952 -1.12503,20.22895 -3.03321,30.17773 l -46.62304,2.74219 c -2.9955,10.59359 -7.40332,20.7535 -13.10938,30.21679 l 31.11328,35.00391 c -11.69957,16.5514 -26.26477,30.87716 -43.00781,42.30078 L 299.698,458.76021 c -8.45113,4.74963 -17.42963,8.53408 -26.75976,11.2793 l -2.75977,46.92773 c -9.94878,1.90818 -20.04821,2.92329 -30.17773,3.03321 -10.12953,-0.10992 -20.22896,-1.12503 -30.17774,-3.03321 l -2.69726,-45.84765 c -11.16276,-2.70652 -21.90076,-6.8811 -31.92188,-12.41016 l -33.34375,29.63867 c -16.5521,-11.69939 -30.87853,-26.2646 -42.302734,-43.00781 l 28.369144,-31.91602 c -5.83388,-9.63448 -10.32003,-19.99421 -13.33789,-30.80078 l -41.556645,-2.44531 c -1.907522,-9.94884 -2.921975,-20.04826 -3.03125,-30.17773 0.109274,-10.12947 1.123727,-20.2289 3.03125,-30.17774 l 41.556645,-2.44531 c 3.01769,-10.80725 7.50385,-21.16764 13.33789,-30.80274 L 99.557376,254.65865 c 11.423804,-16.74234 25.749554,-31.30687 42.300784,-43.00586 l 33.3457,29.63867 c 10.02102,-5.52974 20.75902,-9.70497 31.92188,-12.41211 l 2.69726,-45.8457 c 9.94878,-1.90818 20.04821,-2.92328 30.17774,-3.0332 z"
         sodipodi:nodetypes="sssssccccccccccccccccccccccccccccccccccccccc" /><path
         id="path168"
         style="opacity:1;fill:#000000;fill-opacity:1;fill-rule:evenodd"
         d="m 240.00074,280.00045 a 70,70 0 0 0 -70,70 70,70 0 0 0 70,70 70,70 0 0 0 70,-70 70,70 0 0 0 -70,-70 z m 0,30 a 40,40 0 0 1 40,40 40,40 0 0 1 -40,40 40,40 0 0 1 -40,-40 40,40 0 0 1 40,-40 z" /><path
         id="path268"
         style="opacity:1;fill:#000000;fill-opacity:1;fill-rule:evenodd;stroke-width:0.9375"
         d="m -1.35864,505.84029 c -8.753156,31.34158 -18.001718,51.9236 -31.017578,64.93945 -14.41345,14.41345 -50.964671,40.59187 -99.210942,57.61914 -32.04213,11.30844 -55.73604,38.40181 -55.78906,72.38086 0,41.42136 33.57864,75 75,75 33.974803,-0.0536 61.068377,-23.74172 72.376955,-55.77929 17.031116,-48.24972 43.2086116,-84.80627 57.623047,-99.22071 13.567814,-13.56781 35.440993,-23.04246 69.072266,-32.1289 C 51.609217,567.60923 21.570703,539.35967 -1.35864,505.84029 Z m -111.01953,154.93945 c 22.09139,0 39.999999,17.90861 39.999999,40 0,22.09139 -17.908609,40 -39.999999,40 -22.09139,0 -40,-17.90861 -40,-40 0,-22.09139 17.90861,-40 40,-40 z"
         sodipodi:nodetypes="cssccssccsssss" /></g></g></svg>
